<?xml version="1.0" encoding="UTF-8" standalone="no"?>
<svg
   xmlns:dc="http://purl.org/dc/elements/1.1/"
   xmlns:cc="http://creativecommons.org/ns#"
   xmlns:rdf="http://www.w3.org/1999/02/22-rdf-syntax-ns#"
   xmlns:svg="http://www.w3.org/2000/svg"
   xmlns="http://www.w3.org/2000/svg"
   xmlns:sodipodi="http://sodipodi.sourceforge.net/DTD/sodipodi-0.dtd"
   xmlns:inkscape="http://www.inkscape.org/namespaces/inkscape"
   sodipodi:docname="spelling is fun.jpg.svg"
   inkscape:version="1.0 (4035a4fb49, 2020-05-01)"
   id="svg8"
   version="1.1"
   viewBox="0 0 210 297"
   height="297mm"
   width="210mm">
  <defs
     id="defs2">
    <rect
       id="rect58"
       height="14.165285"
       width="87.664405"
       y="90.60437"
       x="80.715397" />
  </defs>
  <sodipodi:namedview
     inkscape:window-maximized="1"
     inkscape:window-y="-11"
     inkscape:window-x="-11"
     inkscape:window-height="986"
     inkscape:window-width="1920"
     showgrid="false"
     inkscape:document-rotation="0"
     inkscape:current-layer="layer1"
     inkscape:document-units="mm"
     inkscape:cy="347.78386"
     inkscape:cx="330.54669"
     inkscape:zoom="0.98994949"
     inkscape:pageshadow="2"
     inkscape:pageopacity="0.0"
     borderopacity="1.0"
     bordercolor="#666666"
     pagecolor="#ffffff"
     id="base" />
  <metadata
     id="metadata5">
    <rdf:RDF>
      <cc:Work
         rdf:about="">
        <dc:format>image/svg+xml</dc:format>
        <dc:type
           rdf:resource="http://purl.org/dc/dcmitype/StillImage" />
        <dc:title></dc:title>
      </cc:Work>
    </rdf:RDF>
  </metadata>
  <g
     id="layer1"
     inkscape:groupmode="layer"
     inkscape:label="Layer 1">
    <path
       id="path10"
       d="M 36.348656,35.546847 C 67.35192,81.517206 23.252448,122.94398 67.35192,81.517206 c 44.09947,-41.426778 34.2105,-78.8445109 44.09947,-41.426778 9.88898,37.417735 51.85029,34.745038 9.88898,37.417735 -41.96132,2.672693 8.28535,-42.763125 -41.96132,2.672693 C 29.132379,125.61668 22.717909,170.25069 22.717909,170.25069 Z"
       style="fill:none;stroke:#000000;stroke-width:0.264583px;stroke-linecap:butt;stroke-linejoin:miter;stroke-opacity:1" />
    <path
       id="path12"
       d="m 104.76966,113.32228 c 47.84125,12.56167 51.85029,-43.564933 51.85029,-43.564933 l 30.73599,33.675963 -35.0123,22.98518 8.01808,22.7179 z"
       style="fill:none;stroke:#000000;stroke-width:0.264583px;stroke-linecap:butt;stroke-linejoin:miter;stroke-opacity:1" />
    <circle
       r="10.444905"
       cy="56.126598"
       cx="65.61467"
       id="path34"
       style="fill:#ff8080;fill-rule:evenodd;stroke-width:0.264583" />
    <ellipse
       ry="21.782465"
       rx="28.597837"
       cy="33.275055"
       cx="166.50891"
       id="path38"
       style="fill:#ffd5d5;fill-rule:evenodd;stroke-width:0.264583" />
    <path
       transform="scale(0.26458333)"
       id="path40"
       d="M 89.675064,618.43481 C 89.62152,616.18537 136.64045,149.74474 137.67323,142.27989 l 0.62032,-4.48362 4.0048,6.29881 c 15.10416,23.756 27.73841,54.95677 33.71372,83.25736 7.30251,34.58652 7.44924,67.60316 0.51921,116.83437 -2.32844,16.54133 -2.62192,26.36281 -0.84097,28.14376 3.10203,3.10203 9.68553,-0.22879 23.53655,-11.90797 19.55998,-16.49299 69.67364,-64.01045 84.51466,-80.1363 43.40358,-47.16114 73.37667,-93.22894 100.26678,-154.10726 9.57671,-21.68136 13.05655,-28.625464 15.26211,-30.455918 3.75729,-3.118276 6.71343,3.802701 15.65331,36.647838 8.16935,30.01425 11.36185,39.58359 17.60775,52.77834 16.36779,34.57764 37.79415,57.99226 79.3376,86.69972 15.60669,10.78456 16.67605,12.55533 8.76165,14.50868 -10.51546,2.5953 -70.53986,6.79322 -83.00786,5.80531 -25.0728,-1.98665 -39.22122,-8.97073 -45.10113,-22.26325 -3.00629,-6.79621 -3.31206,-15.43872 -1.03225,-29.17664 2.02537,-12.20478 1.74563,-15.67279 -1.26422,-15.67279 -2.72507,0 -13.5895,8.25372 -31.3943,23.85028 -89.10254,78.05164 -131.09542,121.34811 -171.61409,176.94154 -42.95581,58.93731 -76.99266,125.10876 -93.941714,182.63319 -1.952685,6.62734 -3.572726,11.1091 -3.600092,9.95947 z"
       style="fill:#ffd42a;stroke:none;stroke-width:1.01015" />
    <path
       transform="scale(0.26458333)"
       id="path42"
       d="m 599.24727,557.91912 c -1.11117,-0.76215 -45.88618,-29.66335 -99.50003,-64.22489 -53.61384,-34.56154 -96.3433,-62.5493 -94.95434,-62.19503 15.83178,4.03806 50.62121,5.58271 64.87482,2.88046 44.11206,-8.36294 75.68836,-34.23492 98.2914,-80.53489 10.15885,-20.80934 18.54624,-47.48719 22.23109,-70.71067 0.88154,-5.55584 1.91631,-11.55015 2.29947,-13.3207 0.68724,-3.17559 1.45505,-2.38749 56.72182,58.22135 30.81383,33.79229 56.1506,61.83318 56.30392,62.3131 0.15332,0.47991 -5.96611,4.95049 -13.59875,9.93462 -13.18269,8.60834 -116.60873,76.40517 -117.18766,76.81771 -0.15103,0.10764 6.09929,18.25469 13.8896,40.3268 7.7903,22.07211 14.16419,40.54798 14.16419,41.05748 0,1.26431 -1.13187,1.08333 -3.53553,-0.56534 z"
       style="fill:#00ff00;stroke-width:1.01015" />
    <path
       transform="scale(0.26458333)"
       id="path50"
       d="m 538.11935,517.71542 c -34.71646,-22.42206 -74.48506,-48.18635 -88.37466,-57.25398 -13.8896,-9.06765 -28.79523,-18.75403 -33.12363,-21.5253 -4.3284,-2.77128 -7.69201,-5.21649 -7.47468,-5.43382 0.21733,-0.21733 3.53146,0.0763 7.36474,0.65246 3.83328,0.57618 15.15184,1.32106 25.15235,1.65529 20.7325,0.69289 30.79585,-0.56428 46.42752,-5.80004 18.57227,-6.22068 32.21032,-14.49653 46.37019,-28.13837 28.74991,-27.69814 47.09497,-67.63769 57.55453,-125.30356 l 1.37418,-7.57614 8.40774,8.5863 c 4.62426,4.72246 29.71462,31.99658 55.75636,60.60915 l 47.34862,52.02286 -2.82513,2.2791 c -1.5538,1.25351 -30.71738,20.55199 -64.80793,42.88551 -34.09055,22.33353 -62.1836,41.12968 -62.42902,41.76923 -0.24542,0.63954 5.72071,18.82257 13.25807,40.40671 7.53735,21.58415 13.57768,39.62372 13.42295,40.08794 -0.15475,0.46421 -28.68573,-17.50129 -63.4022,-39.92334 z"
       style="fill:#ff7f2a;stroke-width:1.01015" />
    <rect
       y="161.43079"
       x="36.615925"
       height="24.856066"
       width="47.573978"
       id="rect52"
       style="fill:#008080;stroke-width:0.264583" />
    <rect
       ry="0"
       y="155.28362"
       x="141.65285"
       height="42.763126"
       width="43.832207"
       id="rect54"
       style="fill:#c83737;stroke-width:0.416109" />
    <text
       transform="translate(-12.561668)"
       style="font-style:normal;font-weight:normal;font-size:10.5833px;line-height:1.25;font-family:sans-serif;white-space:pre;shape-inside:url(#rect58);fill:#000000;fill-opacity:1;stroke:none;"
       id="text56"
       xml:space="preserve"><tspan
         x="80.714844"
         y="100.25898"><tspan>spelling is fun</tspan></tspan></text>
    <path
       id="path64"
       d="M 52.919365,4.0090428 C 1.6036172,112.78774 1.6036172,112.78774 1.6036172,112.78774"
       style="fill:none;stroke:#000000;stroke-width:0.264583px;stroke-linecap:butt;stroke-linejoin:miter;stroke-opacity:1" />
    <path
       id="path66"
       d="m 196.17583,6.6817382 c 4.54358,99.4242618 4.54358,99.6915318 4.54358,99.6915318"
       style="fill:none;stroke:#000000;stroke-width:0.264583px;stroke-linecap:butt;stroke-linejoin:miter;stroke-opacity:1" />
    <path
       id="path68"
       d="M 81.517206,8.8198943 C 6.6817382,62.273798 6.6817382,62.273798 6.6817382,62.273798"
       style="fill:none;stroke:#000000;stroke-width:0.264583px;stroke-linecap:butt;stroke-linejoin:miter;stroke-opacity:1" />
    <path
       id="path70"
       d="m 127.75483,14.165285 c 55.85933,54.255713 55.85933,54.255713 55.85933,54.255713"
       style="fill:none;stroke:#000000;stroke-width:0.264583px;stroke-linecap:butt;stroke-linejoin:miter;stroke-opacity:1" />
    <path
       id="path72"
       d="M 138.44561,1.8708867 C 195.10675,113.58955 195.10675,113.58955 195.10675,113.58955"
       style="fill:none;stroke:#000000;stroke-width:0.264583px;stroke-linecap:butt;stroke-linejoin:miter;stroke-opacity:1" />
  </g>
</svg>
